<?xml version="1.0" encoding="utf-8"?>
<!-- Generator: Adobe Illustrator 19.0.0, SVG Export Plug-In . SVG Version: 6.00 Build 0)  -->
<svg version="1.1" id="Слой_1" xmlns="http://www.w3.org/2000/svg" xmlns:xlink="http://www.w3.org/1999/xlink" x="0px" y="0px"
	 width="80px" height="30px" viewBox="0 0 80 30" style="enable-background:new 0 0 80 30;" xml:space="preserve">
<style type="text/css">
	.st0{fill:#FFFFFF;}
	.st1{fill:#E13A3D;}
	.st2{fill:#010101;}
	.st3{fill:#EF4239;}
	.st4{fill:#EF4138;}
</style>
<g id="XMLID_11_">
	<polygon id="XMLID_6_" class="st0" points="36.2,13.5 26.7,0 21.5,0 0,30 8.2,30 23.9,8.1 24,8 24,8 24,8 27.9,13.5 	"/>
	<line id="XMLID_5_" class="st1" x1="24" y1="8" x2="24" y2="8"/>
	<path id="XMLID_4_" class="st2" d="M24,8C24,8,24,8,24,8C24,8,24,8,24,8z"/>
	<path id="XMLID_3_" class="st2" d="M24,8C24,8,24,8,24,8C24,8,24,8,24,8z"/>
</g>
<g id="XMLID_8_">
	<polygon id="XMLID_2_" class="st3" points="47.6,30 43,24.5 26.7,24.5 35.8,20.8 26.5,20.8 15,24.4 11.1,30 	"/>
	<polygon id="XMLID_1_" class="st3" points="39.7,18.5 36.2,13.5 22.8,13.5 19.2,18.5 	"/>
</g>
<g id="XMLID_20_">
	<path id="XMLID_21_" class="st0" d="M37.4,0.2h2.8v10.5c0,0.6,0.3,0.8,0.5,0.8c0.1,0,0.2,0,0.3,0l0.3,2.1c-0.3,0.1-0.8,0.2-1.4,0.2
		c-1.9,0-2.6-1.3-2.6-3.2V0.2z"/>
	<path id="XMLID_23_" class="st0" d="M46.8,3.9c2.7,0,4,2,4,4.5c0,0.5-0.1,1-0.1,1.2H45c0.2,1.4,1.2,2.1,2.5,2.1
		c0.7,0,1.3-0.2,2-0.6l0.9,1.7c-1,0.7-2.2,1.1-3.3,1.1c-2.7,0-4.8-1.8-4.8-4.9C42.3,5.8,44.5,3.9,46.8,3.9z M48.4,7.9
		c0-1.1-0.5-1.8-1.6-1.8c-0.9,0-1.6,0.6-1.8,1.8H48.4z"/>
	<path id="XMLID_26_" class="st0" d="M54.3,8.6l-2.7-4.5h3l0.8,1.5c0.2,0.5,0.5,1.1,0.8,1.6h0.1c0.2-0.5,0.4-1.1,0.6-1.6l0.6-1.5
		h2.9L57.8,9l2.9,4.6h-3L56.8,12c-0.3-0.5-0.6-1.1-0.9-1.6h-0.1c-0.2,0.5-0.5,1.1-0.7,1.6l-0.7,1.6h-2.9L54.3,8.6z"/>
</g>
<g id="XMLID_10_">
	<path id="XMLID_12_" class="st4" d="M53.3,23.6c-0.1-0.8-0.5-1.4-1.5-1.4c-0.8,0-1.6,0.3-2.5,0.9l-1-1.8c1.2-0.7,2.5-1.2,4-1.2
		c2.4,0,3.7,1.4,3.7,4.3v5.4h-2.3l-0.2-1h-0.1c-0.8,0.7-1.7,1.2-2.8,1.2c-1.7,0-2.8-1.3-2.8-2.8C48,25.1,49.6,24,53.3,23.6z
		 M51.7,27.7c0.6,0,1.1-0.3,1.6-0.8v-1.7c-2,0.3-2.6,0.8-2.6,1.6C50.6,27.4,51.1,27.7,51.7,27.7z"/>
	<path id="XMLID_15_" class="st4" d="M58.5,20.2h2.3l0.2,1.2H61c0.8-0.8,1.7-1.4,3-1.4c2.1,0,2.9,1.4,2.9,3.8v5.9h-2.8v-5.5
		c0-1.4-0.4-1.8-1.2-1.8c-0.7,0-1.1,0.3-1.7,0.9v6.4h-2.8V20.2z"/>
	<path id="XMLID_17_" class="st4" d="M73.2,20c2.7,0,4,2,4,4.5c0,0.5-0.1,0.9-0.1,1.2h-5.6c0.2,1.4,1.2,2.1,2.5,2.1
		c0.7,0,1.3-0.2,2-0.6l0.9,1.7c-1,0.7-2.2,1.1-3.3,1.1c-2.7,0-4.8-1.8-4.8-4.9C68.8,21.9,71,20,73.2,20z M74.9,24
		c0-1.1-0.5-1.8-1.6-1.8c-0.9,0-1.6,0.6-1.8,1.8H74.9z"/>
</g>
</svg>
